<?xml version="1.0" encoding="utf-8"?>
<!-- Generator: Adobe Illustrator 22.1.0, SVG Export Plug-In . SVG Version: 6.00 Build 0)  -->
<svg version="1.1" id="Layer_1" xmlns="http://www.w3.org/2000/svg" xmlns:xlink="http://www.w3.org/1999/xlink" x="0px" y="0px"
	 viewBox="0 0 512 512" style="enable-background:new 0 0 512 512;" xml:space="preserve">
<style type="text/css">
	.st0{fill:#333333;}
</style>
<g>
	<path class="st0" d="M252,252.1V101.1c-83.7,2.1-151,70.6-151,154.9c0,85.7,69.4,155.1,155,155.1S411,341.7,411,256
		c0-1.3-0.2-2.6-0.2-4H252z"/>
	<path class="st0" d="M256,54.5c53.8,0,104.4,21,142.5,59s59,88.7,59,142.5s-21,104.4-59,142.5s-88.7,59-142.5,59
		s-104.4-21-142.5-59s-59-88.7-59-142.5s21-104.4,59-142.5S202.2,54.5,256,54.5 M256,8C119,8,8,119,8,256s111,248,248,248
		s248-111,248-248S393,8,256,8L256,8z"/>
</g>
</svg>

